<svg version="1.1" id="_x32_" xmlns="http://www.w3.org/2000/svg" xmlns:xlink="http://www.w3.org/1999/xlink" x="0px" y="0px" viewBox="0 0 512 512" style="width: 128px; height: 128px; opacity: 1;" xml:space="preserve">
<style type="text/css">
	.st0{fill:#4B4B4B;}
</style>
<g>
	<path class="st0" d="M464.085,276.875c-20.078-25.1-41.523-46.713-41.523-46.713c-5.891-6.609-14.246-10.516-23.092-10.769
		c-8.862-0.262-17.436,3.131-23.699,9.393l-35.464,35.481c-5.865,5.848-15.368,5.848-21.218,0l-20.956-20.948
		c-2.506-2.515-6.574-2.515-9.098,0l-45.718,45.726c-2.507,2.507-2.515,6.584,0,9.098l20.947,20.947
		c5.849,5.857,5.849,15.352,0,21.218l-35.481,35.472c-6.253,6.262-9.671,14.828-9.41,23.69c0.261,8.853,4.169,17.208,10.794,23.091
		c0,0,21.606,21.436,46.705,41.523c53.483,42.79,136.403,72.21,207.271,20.054C536.295,413.27,506.866,330.366,464.085,276.875z" style="fill: rgb(75, 75, 75);"></path>
	<path class="st0" d="M267.22,227.098L164.323,124.2l8.499-45.709c3.199-17.167-2.27-34.789-14.618-47.144l-23.2-23.201
		c-2.676-2.683-5.849-4.752-9.2-6.11c-5.047-2.043-10.491-2.541-15.731-1.528c-5.224,0.996-10.339,3.604-14.348,7.63L8.129,95.725
		c-2.676,2.667-4.743,5.84-6.094,9.2c-2.042,5.046-2.54,10.481-1.527,15.723c0.996,5.233,3.604,10.339,7.63,14.356l23.2,23.21
		C43.694,170.552,61.325,176.02,78.5,172.83l45.701-8.507L227.097,267.22L267.22,227.098z M131.923,70.878l-9.579,51.466
		l-51.465,9.588c-3.688,0.691-7.469-0.49-10.119-3.14l-13.428-13.436l68.024-68.024l13.436,13.436
		C131.433,63.418,132.615,67.199,131.923,70.878z" style="fill: rgb(75, 75, 75);"></path>
</g>
</svg>